<svg xmlns="http://www.w3.org/2000/svg" xmlns:xlink="http://www.w3.org/1999/xlink" x="0px" y="0px" width="64px" height="64px" viewBox="0 0 64 64"><g transform="translate(0, 0)"><circle data-color="color-2" fill="#ffffff" cx="12" cy="12" r="7"></circle>
<path data-color="color-2" fill="#ffffff" d="M17,45V32c0-2.973,1.19-5.67,3.114-7.651C18.957,23.505,17.538,23,16,23H8c-3.86,0-7,3.14-7,7
	v8c0,0.379,0.214,0.725,0.553,0.895l3.49,1.745l0.959,13.432C6.04,54.595,6.476,55,7,55h10c0.524,0,0.96-0.405,0.998-0.929
	l0.464-6.498C17.578,47.042,17,46.076,17,45z"></path>
<circle data-color="color-2" fill="#ffffff" cx="52" cy="12" r="7"></circle>
<path data-color="color-2" fill="#ffffff" d="M47,45V32c0-2.973-1.19-5.67-3.114-7.651C45.043,23.505,46.462,23,48,23h8c3.86,0,7,3.14,7,7
	v8c0,0.379-0.214,0.725-0.553,0.895l-3.49,1.745l-0.959,13.432C57.96,54.595,57.524,55,57,55H47c-0.524,0-0.96-0.405-0.998-0.929
	l-0.464-6.498C46.422,47.042,47,46.076,47,45z"></path>
<path fill="#ffffff" d="M36,23h-8c-4.962,0-9,4.038-9,9v13c0,0.477,0.336,0.887,0.804,0.98l4.246,0.849l0.952,15.233
	C25.035,62.589,25.472,63,26,63h12c0.528,0,0.965-0.411,0.998-0.938L39.95,46.83l4.246-0.849C44.664,45.887,45,45.477,45,45V32
	C45,27.038,40.962,23,36,23z"></path>
<path fill="#ffffff" d="M32,19c4.962,0,9-4.038,9-9s-4.038-9-9-9s-9,4.038-9,9S27.038,19,32,19z"></path></g></svg>