<svg xmlns="http://www.w3.org/2000/svg" xmlns:xlink="http://www.w3.org/1999/xlink" x="0px" y="0px" width="16px" height="16px" viewBox="0 0 16 16"><g transform="translate(0, 0)"><rect x="1.5" y="2.5" width="3" height="3" rx="1.5" ry="1.5" fill="none" stroke="#5e72e4" stroke-linecap="round" stroke-linejoin="round" data-cap="butt" data-color="color-2"></rect>
  <path d="M3.5,14.5h-2v-3H.5v-3a1,1,0,0,1,1-1h1" fill="none" stroke="#5e72e4" stroke-linecap="round" stroke-linejoin="round" data-cap="butt" data-color="color-2"></path>
  <rect x="11.5" y="2.5" width="3" height="3" rx="1.5" ry="1.5" transform="translate(26 8) rotate(-180)" fill="none" stroke="#5e72e4" stroke-linecap="round" stroke-linejoin="round" data-cap="butt" data-color="color-2"></rect>
  <path d="M12.5,14.5h2v-3h1v-3a1,1,0,0,0-1-1h-1" fill="none" stroke="#5e72e4" stroke-linecap="round" stroke-linejoin="round" data-cap="butt" data-color="color-2"></path>
  <rect x="6" y="0.5" width="4" height="4" rx="2" ry="2" fill="none" stroke="#5e72e4" stroke-linecap="round" stroke-linejoin="round" data-cap="butt"></rect>
  <path d="M10.5,15.5h-5v-4h-1v-3a2,2,0,0,1,2-2h3a2,2,0,0,1,2,2v3h-1Z" fill="none" stroke="#5e72e4" stroke-linecap="round" stroke-linejoin="round" data-cap="butt"></path></g></svg>