<svg xmlns="http://www.w3.org/2000/svg" xmlns:xlink="http://www.w3.org/1999/xlink" x="0px" y="0px" width="64px" height="64px" viewBox="0 0 64 64"><g transform="translate(0, 0)"><path data-color="color-2" fill="#ffffff" d="M24,3c-4.963,0-9,4.037-9,9s4.037,9,9,9s9-4.037,9-9S28.963,3,24,3z M27,13h-6
	c-0.553,0-1-0.447-1-1s0.447-1,1-1h6c0.553,0,1,0.447,1,1S27.553,13,27,13z"></path>
<path data-color="color-2" fill="#ffffff" d="M48,15c-4.963,0-9,4.037-9,9s4.037,9,9,9s9-4.037,9-9S52.963,15,48,15z M51,25h-6
	c-0.553,0-1-0.447-1-1s0.447-1,1-1h6c0.553,0,1,0.447,1,1S51.553,25,51,25z"></path>
<path fill="#ffffff" d="M57.925,44.991l-23.892,2.078c-2.212,0.192-4.43-0.295-6.357-1.396l-6.585-3.763h15.365
	c2.058,0,3.726-1.668,3.726-3.726c0-1.793-1.277-3.332-3.039-3.662l-13.796-2.587C20.032,31.313,16.667,31,13.294,31H2v19.744
	l22.431,9.351c2.483,0.931,5.23,0.918,7.757,0.28L62,48.727v-0.001C62,46.527,60.116,44.8,57.925,44.991z"></path></g></svg>