<svg xmlns="http://www.w3.org/2000/svg" xmlns:xlink="http://www.w3.org/1999/xlink" x="0px" y="0px" width="48px" height="48px" viewBox="0 0 48 48"><g transform="translate(0, 0)"><path fill="#ffffff" d="M37,34c-3.309,0-6-2.691-6-6s2.691-6,6-6h7V12c0-0.552-0.448-1-1-1H6c-1.654,0-3-1.346-3-3s1.346-3,3-3h27v4
	h2V4c0-0.552-0.448-1-1-1H6C3.243,3,1,5.243,1,8v30c0,3.86,3.14,7,7,7h35c0.552,0,1-0.448,1-1V34H37z"></path>
<path data-color="color-2" fill="#ffffff" d="M46,24h-9c-2.206,0-4,1.794-4,4s1.794,4,4,4h9c0.552,0,1-0.448,1-1v-6
	C47,24.448,46.552,24,46,24z"></path></g></svg>