<svg xmlns="http://www.w3.org/2000/svg" xmlns:xlink="http://www.w3.org/1999/xlink" x="0px" y="0px" width="64px" height="64px" viewBox="0 0 64 64"><g stroke-width="2" transform="translate(0, 0)"><path data-color="color-2" fill="none" stroke="#444444" stroke-width="2" stroke-linecap="square" stroke-miterlimit="10" d="M60,53.174
	c0-3.367-2.091-6.375-5.258-7.52C50.088,43.971,42.413,42,32,42s-18.088,1.971-22.742,3.654C6.091,46.799,4,49.806,4,53.174V62h56
	V53.174z" stroke-linejoin="miter"></path>
<path fill="none" stroke="#444444" stroke-width="2" stroke-linecap="square" stroke-miterlimit="10" d="M32,34L32,34
	c-7.732,0-14-6.268-14-14v-4c0-7.732,6.268-14,14-14h0c7.732,0,14,6.268,14,14v4C46,27.732,39.732,34,32,34z" stroke-linejoin="miter"></path></g></svg>